<?xml version="1.0" encoding="UTF-8"?>
<!DOCTYPE svg PUBLIC "-//W3C//DTD SVG 1.1//EN" "http://www.w3.org/Graphics/SVG/1.1/DTD/svg11.dtd">
<svg xmlns="http://www.w3.org/2000/svg" version="1.1" width="463px" height="455px" style="shape-rendering:geometricPrecision; text-rendering:geometricPrecision; image-rendering:optimizeQuality; fill-rule:evenodd; clip-rule:evenodd" xmlns:xlink="http://www.w3.org/1999/xlink">
<g><path style="opacity:1" fill="#f8faf9" d="M 236.5,63.5 C 236.5,87.5 236.5,111.5 236.5,135.5C 260.307,137.734 280.974,147.068 298.5,163.5C 304.652,157.848 310.652,152.015 316.5,146C 323.202,144.533 325.535,147.033 323.5,153.5C 316.97,159.196 310.97,165.362 305.5,172C 315.783,184.737 322.117,199.237 324.5,215.5C 324.5,217.833 324.5,220.167 324.5,222.5C 349.19,223.157 373.523,222.49 397.5,220.5C 402.52,202.652 414.186,195.485 432.5,199C 451.098,206.755 456.932,220.255 450,239.5C 442.361,252.059 431.195,256.892 416.5,254C 407.253,250.254 400.92,243.754 397.5,234.5C 373.523,232.51 349.19,231.843 324.5,232.5C 324.5,234.833 324.5,237.167 324.5,239.5C 323.02,258.451 316.353,275.285 304.5,290C 319.681,305.014 334.681,320.181 349.5,335.5C 352.148,333.342 355.148,332.008 358.5,331.5C 358.6,325.032 358.1,318.699 357,312.5C 361.333,307.167 365.667,307.167 370,312.5C 368.799,318.968 368.299,325.635 368.5,332.5C 371.809,333.242 374.643,334.909 377,337.5C 378.98,342.277 379.98,347.277 380,352.5C 381.333,354.5 382.667,356.5 384,358.5C 386.573,359.806 388.906,361.473 391,363.5C 391.784,370.716 388.618,373.882 381.5,373C 378.196,370.727 376.696,367.561 377,363.5C 376.167,362.667 375.333,361.833 374.5,361C 371.826,361.153 369.16,361.653 366.5,362.5C 366.334,366.846 366.501,371.179 367,375.5C 370.535,379.504 370.035,383.004 365.5,386C 359.648,388.04 356.315,386.04 355.5,380C 357.334,376.624 358.334,372.958 358.5,369C 358.47,366.576 358.137,364.243 357.5,362C 354.71,361.439 352.377,360.106 350.5,358C 345.167,357.333 339.833,357.333 334.5,358C 330.496,361.535 326.996,361.035 324,356.5C 322.817,352.726 323.651,349.559 326.5,347C 331.298,346.667 335.964,347.167 340.5,348.5C 342.5,348.167 344.5,347.833 346.5,347.5C 330.708,331.207 314.708,315.041 298.5,299C 297.833,298.333 297.167,298.333 296.5,299C 293.607,302.396 290.274,305.229 286.5,307.5C 285.167,321.167 285.167,334.833 286.5,348.5C 295.838,352.51 299.338,359.51 297,369.5C 295.58,373.345 293.413,376.678 290.5,379.5C 296.819,386.319 303.319,392.986 310,399.5C 322.429,397.595 328.096,402.928 327,415.5C 323.571,423.1 317.738,425.6 309.5,423C 306.96,420.795 304.793,418.295 303,415.5C 302.544,412.428 302.544,409.428 303,406.5C 295.167,398.667 287.333,390.833 279.5,383C 265.186,377.211 261.353,367.377 268,353.5C 270.128,351.192 272.628,349.526 275.5,348.5C 276.824,337.326 276.824,325.993 275.5,314.5C 274.893,314.624 274.56,314.957 274.5,315.5C 263.376,321.247 251.709,324.914 239.5,326.5C 238.5,326.5 237.5,326.5 236.5,326.5C 236.5,346.167 236.5,365.833 236.5,385.5C 237.5,385.5 238.5,385.5 239.5,385.5C 261.903,397.696 265.569,414.196 250.5,435C 247.737,437.374 244.737,439.208 241.5,440.5C 223.432,444.883 210.932,438.55 204,421.5C 201.137,402.872 208.637,390.872 226.5,385.5C 226.5,365.833 226.5,346.167 226.5,326.5C 213.105,325.811 200.438,322.477 188.5,316.5C 188.44,315.957 188.107,315.624 187.5,315.5C 186.176,326.66 186.176,337.66 187.5,348.5C 198.304,355.583 200.471,364.917 194,376.5C 190.703,379.567 186.869,381.733 182.5,383C 175.333,390.167 168.167,397.333 161,404.5C 160.07,409.599 158.737,414.599 157,419.5C 149.354,425.354 142.354,424.687 136,417.5C 133.037,403.796 138.537,397.629 152.5,399C 158.667,392.833 164.833,386.667 171,380.5C 169.591,376.694 167.591,373.027 165,369.5C 163.04,358.743 167.206,351.743 177.5,348.5C 177.833,335.15 177.499,321.817 176.5,308.5C 153.112,291.066 140.112,267.732 137.5,238.5C 137.5,236.5 137.5,234.5 137.5,232.5C 112.994,232.169 88.6609,232.502 64.5,233.5C 58.4257,250.379 46.4257,257.212 28.5,254C 12.6795,246.86 6.51286,234.694 10,217.5C 17.0025,201.082 29.1691,194.916 46.5,199C 56.4502,203.439 62.4502,210.939 64.5,221.5C 88.6609,222.498 112.994,222.831 137.5,222.5C 137.5,221.5 137.5,220.5 137.5,219.5C 138.484,202.042 144.65,186.708 156,173.5C 156.667,172.5 156.667,171.5 156,170.5C 142.291,156.29 128.125,142.623 113.5,129.5C 110.752,130.039 108.085,130.872 105.5,132C 103.928,134.038 102.928,136.371 102.5,139C 98.1287,139.828 93.7953,139.661 89.5,138.5C 88.6518,136.591 88.3184,134.591 88.5,132.5C 85.9512,132.613 83.6179,131.946 81.5,130.5C 79.3379,132.02 77.0046,133.02 74.5,133.5C 72.205,130.703 69.705,128.036 67,125.5C 66.3333,124.167 66.3333,122.833 67,121.5C 69.9775,118.335 69.8108,115.169 66.5,112C 64.5273,111.505 62.5273,111.338 60.5,111.5C 60.5,106.5 60.5,101.5 60.5,96.5C 65.5908,97.2439 68.5908,95.0773 69.5,90C 69.0696,88.5659 68.2362,87.3992 67,86.5C 66.3333,85.5 66.3333,84.5 67,83.5C 69.128,80.3699 71.628,77.5366 74.5,75C 76.6994,75.7453 79.0327,76.5787 81.5,77.5C 83.5,77 85.5,76.5 87.5,76C 88.1667,74 88.8333,72 89.5,70C 94.1548,69.5008 98.8215,69.3342 103.5,69.5C 103.244,71.7925 103.577,73.9592 104.5,76C 106.459,76.9309 108.459,77.7643 110.5,78.5C 112.429,77.6198 114.263,76.6198 116,75.5C 117.643,76.3146 119.143,77.3146 120.5,78.5C 122.53,80.5366 124.196,82.8699 125.5,85.5C 122.272,88.6447 121.605,92.3113 123.5,96.5C 125.806,96.9926 128.139,97.3259 130.5,97.5C 130.5,102.167 130.5,106.833 130.5,111.5C 128.473,111.338 126.473,111.505 124.5,112C 122.585,114.645 121.418,117.479 121,120.5C 134.679,135.512 149.012,149.846 164,163.5C 173.701,154.725 184.535,147.558 196.5,142C 203.921,139.061 211.588,137.228 219.5,136.5C 221.833,136.5 224.167,136.5 226.5,136.5C 226.5,111.833 226.5,87.1667 226.5,62.5C 225.5,62.5 224.5,62.5 223.5,62.5C 207.672,56.1889 201.172,44.5223 204,27.5C 210.035,11.5611 221.535,5.06112 238.5,8C 256.614,15.0616 262.78,27.8949 257,46.5C 252.962,55.7179 246.129,61.3845 236.5,63.5 Z"/></g>
<g><path style="opacity:1" fill="#0b212b" d="M 162.5,9.5 C 161.713,11.1042 160.38,11.7709 158.5,11.5C 158.5,13.1667 158.5,14.8333 158.5,16.5C 155.756,16.7521 153.256,16.0855 151,14.5C 148.953,15.6094 146.787,16.2761 144.5,16.5C 144.688,18.1033 144.188,19.4366 143,20.5C 140.973,20.0137 138.807,20.0137 136.5,20.5C 136.5,22.1667 136.5,23.8333 136.5,25.5C 140.819,24.7992 144.486,25.9659 147.5,29C 149.134,29.4935 150.801,29.6602 152.5,29.5C 152.244,27.2075 152.577,25.0408 153.5,23C 152.167,22.6667 150.833,22.3333 149.5,22C 152.847,19.4561 156.514,18.9561 160.5,20.5C 156.024,23.315 156.024,26.4817 160.5,30C 166.909,29.1467 170.575,31.8134 171.5,38C 171.167,38.3333 170.833,38.6667 170.5,39C 173.322,39.6987 174.988,38.5321 175.5,35.5C 175.167,34.8333 174.833,34.1667 174.5,33.5C 176.167,32.3336 177.834,32.3336 179.5,33.5C 177.832,35.4786 177.166,37.812 177.5,40.5C 170.544,39.4873 168.877,41.8206 172.5,47.5C 172.602,48.337 173.602,49.0037 175.5,49.5C 173.216,54.1387 170.882,58.8054 168.5,63.5C 164.863,60.694 161.696,57.3607 159,53.5C 161.88,39.7317 156.38,33.565 142.5,35C 138.923,37.0738 136.256,39.9072 134.5,43.5C 133.62,45.3781 133.12,48.0448 133,51.5C 132,50.1667 131,48.8333 130,47.5C 128.529,48.3805 127.696,49.7139 127.5,51.5C 128.005,55.5442 128.671,59.5442 129.5,63.5C 128.03,65.4817 128.364,67.1483 130.5,68.5C 126.429,69.1373 122.429,69.9706 118.5,71C 117.137,73.1293 117.471,73.6293 119.5,72.5C 121.706,74.2267 122.039,76.2267 120.5,78.5C 119.143,77.3146 117.643,76.3146 116,75.5C 114.263,76.6198 112.429,77.6198 110.5,78.5C 108.459,77.7643 106.459,76.9309 104.5,76C 103.577,73.9592 103.244,71.7925 103.5,69.5C 98.8215,69.3342 94.1548,69.5008 89.5,70C 88.8333,72 88.1667,74 87.5,76C 85.5,76.5 83.5,77 81.5,77.5C 79.0327,76.5787 76.6994,75.7453 74.5,75C 71.628,77.5366 69.128,80.3699 67,83.5C 66.3333,84.5 66.3333,85.5 67,86.5C 68.2362,87.3992 69.0696,88.5659 69.5,90C 68.5908,95.0773 65.5908,97.2439 60.5,96.5C 60.5,101.5 60.5,106.5 60.5,111.5C 62.5273,111.338 64.5273,111.505 66.5,112C 69.8108,115.169 69.9775,118.335 67,121.5C 66.3333,122.833 66.3333,124.167 67,125.5C 69.705,128.036 72.205,130.703 74.5,133.5C 73.788,134.739 72.788,135.239 71.5,135C 68.2638,131.23 65.0971,127.397 62,123.5C 60.6667,124.167 59.6667,125.167 59,126.5C 57.3964,125.932 56.7297,124.932 57,123.5C 57.9138,124.654 58.7471,124.487 59.5,123C 58.3659,121.984 58.6992,121.317 60.5,121C 54.0571,119.196 47.8905,116.696 42,113.5C 36.03,117.03 34.53,115.363 37.5,108.5C 39.5158,106.596 41.1824,104.429 42.5,102C 42.1667,101.667 41.8333,101.333 41.5,101C 43.2556,100.798 44.9223,100.298 46.5,99.5C 44.7118,98.7174 43.7118,97.3841 43.5,95.5C 43.5,94.8333 43.5,94.1667 43.5,93.5C 45.2624,92.7377 46.2624,91.4044 46.5,89.5C 48.5869,88.4154 49.9202,86.7488 50.5,84.5C 52.2624,83.7377 53.2624,82.4044 53.5,80.5C 54.1667,79.1667 55.1667,78.1667 56.5,77.5C 59.9031,75.1002 62.5698,72.1002 64.5,68.5C 66.1667,66.1667 68.1667,64.1667 70.5,62.5C 72.7488,61.9202 74.4154,60.5869 75.5,58.5C 75.5,57.8333 75.8333,57.5 76.5,57.5C 79.0892,56.5806 81.0892,54.914 82.5,52.5C 84.7488,51.9202 86.4154,50.5869 87.5,48.5C 109.734,30.5468 134.734,17.5468 162.5,9.5 Z"/></g>
<g><path style="opacity:1" fill="#ebeff0" d="M 179.5,33.5 C 183.759,33.1019 185.592,35.1019 185,39.5C 187.57,40.009 189.903,41.009 192,42.5C 191.42,46.532 188.92,48.1986 184.5,47.5C 185.092,50.6405 184.092,52.9739 181.5,54.5C 178.013,53.5309 176.68,51.1976 177.5,47.5C 175.833,47.5 174.167,47.5 172.5,47.5C 168.877,41.8206 170.544,39.4873 177.5,40.5C 177.166,37.812 177.832,35.4786 179.5,33.5 Z"/></g>
<g><path style="opacity:0.953" fill="#626d71" d="M 87.5,48.5 C 86.4154,50.5869 84.7488,51.9202 82.5,52.5C 83.5846,50.4131 85.2512,49.0798 87.5,48.5 Z"/></g>
<g><path style="opacity:0.839" fill="#626f70" d="M 82.5,52.5 C 81.0892,54.914 79.0892,56.5806 76.5,57.5C 77.9108,55.086 79.9108,53.4194 82.5,52.5 Z"/></g>
<g><path style="opacity:0.69" fill="#767e82" d="M 75.5,58.5 C 74.4154,60.5869 72.7488,61.9202 70.5,62.5C 71.5846,60.4131 73.2512,59.0798 75.5,58.5 Z"/></g>
<g><path style="opacity:1" fill="#091f2a" d="M 209.5,-0.5 C 223.833,-0.5 238.167,-0.5 252.5,-0.5C 318.649,6.98644 372.815,36.3198 415,87.5C 441.642,122.456 457.476,161.789 462.5,205.5C 462.5,219.833 462.5,234.167 462.5,248.5C 449.363,341.808 399.029,405.975 311.5,441C 297.524,446.049 283.19,449.549 268.5,451.5C 265.606,451.958 263.106,451.291 261,449.5C 259.601,450.227 258.101,450.727 256.5,451C 257.5,451.333 258.5,451.667 259.5,452C 257.618,452.198 255.952,452.698 254.5,453.5C 253.508,453.328 252.842,453.662 252.5,454.5C 238.167,454.5 223.833,454.5 209.5,454.5C 206.5,453.833 203.5,453.167 200.5,452.5C 210.985,452.387 221.652,452.22 232.5,452C 237.293,450.749 241.793,450.583 246,451.5C 249.346,449.578 249.346,448.911 246,449.5C 245.312,448.668 245.479,448.002 246.5,447.5C 255.037,445.14 259.704,439.64 260.5,431C 257.795,431.002 255.795,432.335 254.5,435C 254.833,435.333 255.167,435.667 255.5,436C 254.027,436.71 253.36,437.876 253.5,439.5C 249.548,440.272 245.548,440.605 241.5,440.5C 244.737,439.208 247.737,437.374 250.5,435C 265.569,414.196 261.903,397.696 239.5,385.5C 237.532,366.401 236.865,347.068 237.5,327.5C 239.527,327.662 241.527,327.495 243.5,327C 242.207,326.51 240.873,326.343 239.5,326.5C 251.709,324.914 263.376,321.247 274.5,315.5C 275.495,326.321 275.828,337.321 275.5,348.5C 272.628,349.526 270.128,351.192 268,353.5C 261.353,367.377 265.186,377.211 279.5,383C 287.333,390.833 295.167,398.667 303,406.5C 302.544,409.428 302.544,412.428 303,415.5C 304.793,418.295 306.96,420.795 309.5,423C 317.738,425.6 323.571,423.1 327,415.5C 328.096,402.928 322.429,397.595 310,399.5C 303.319,392.986 296.819,386.319 290.5,379.5C 293.413,376.678 295.58,373.345 297,369.5C 299.338,359.51 295.838,352.51 286.5,348.5C 285.167,334.833 285.167,321.167 286.5,307.5C 290.274,305.229 293.607,302.396 296.5,299C 297.167,298.333 297.833,298.333 298.5,299C 314.708,315.041 330.708,331.207 346.5,347.5C 344.5,347.833 342.5,348.167 340.5,348.5C 335.964,347.167 331.298,346.667 326.5,347C 323.651,349.559 322.817,352.726 324,356.5C 326.996,361.035 330.496,361.535 334.5,358C 339.833,357.333 345.167,357.333 350.5,358C 352.377,360.106 354.71,361.439 357.5,362C 358.137,364.243 358.47,366.576 358.5,369C 358.334,372.958 357.334,376.624 355.5,380C 356.315,386.04 359.648,388.04 365.5,386C 370.035,383.004 370.535,379.504 367,375.5C 366.501,371.179 366.334,366.846 366.5,362.5C 369.16,361.653 371.826,361.153 374.5,361C 375.333,361.833 376.167,362.667 377,363.5C 376.696,367.561 378.196,370.727 381.5,373C 388.618,373.882 391.784,370.716 391,363.5C 388.906,361.473 386.573,359.806 384,358.5C 382.667,356.5 381.333,354.5 380,352.5C 379.98,347.277 378.98,342.277 377,337.5C 374.643,334.909 371.809,333.242 368.5,332.5C 368.299,325.635 368.799,318.968 370,312.5C 365.667,307.167 361.333,307.167 357,312.5C 358.1,318.699 358.6,325.032 358.5,331.5C 355.148,332.008 352.148,333.342 349.5,335.5C 334.681,320.181 319.681,305.014 304.5,290C 316.353,275.285 323.02,258.451 324.5,239.5C 325.461,237.735 325.795,235.735 325.5,233.5C 349.575,233.177 373.575,233.51 397.5,234.5C 400.92,243.754 407.253,250.254 416.5,254C 431.195,256.892 442.361,252.059 450,239.5C 456.932,220.255 451.098,206.755 432.5,199C 414.186,195.485 402.52,202.652 397.5,220.5C 373.575,221.49 349.575,221.823 325.5,221.5C 325.795,219.265 325.461,217.265 324.5,215.5C 322.117,199.237 315.783,184.737 305.5,172C 310.97,165.362 316.97,159.196 323.5,153.5C 325.535,147.033 323.202,144.533 316.5,146C 310.652,152.015 304.652,157.848 298.5,163.5C 280.974,147.068 260.307,137.734 236.5,135.5C 238.857,135.663 241.19,135.497 243.5,135C 241.527,134.505 239.527,134.338 237.5,134.5C 236.849,110.77 237.516,87.2705 239.5,64C 238.552,63.5172 237.552,63.3505 236.5,63.5C 246.129,61.3845 252.962,55.7179 257,46.5C 262.78,27.8949 256.614,15.0616 238.5,8C 221.535,5.06112 210.035,11.5611 204,27.5C 201.172,44.5223 207.672,56.1889 223.5,62.5C 225.475,86.6048 226.142,110.938 225.5,135.5C 223.265,135.205 221.265,135.539 219.5,136.5C 211.588,137.228 203.921,139.061 196.5,142C 184.535,147.558 173.701,154.725 164,163.5C 149.012,149.846 134.679,135.512 121,120.5C 121.418,117.479 122.585,114.645 124.5,112C 126.473,111.505 128.473,111.338 130.5,111.5C 130.5,106.833 130.5,102.167 130.5,97.5C 128.139,97.3259 125.806,96.9926 123.5,96.5C 121.605,92.3113 122.272,88.6447 125.5,85.5C 124.196,82.8699 122.53,80.5366 120.5,78.5C 122.039,76.2267 121.706,74.2267 119.5,72.5C 117.471,73.6293 117.137,73.1293 118.5,71C 122.429,69.9706 126.429,69.1373 130.5,68.5C 128.364,67.1483 128.03,65.4817 129.5,63.5C 128.671,59.5442 128.005,55.5442 127.5,51.5C 127.696,49.7139 128.529,48.3805 130,47.5C 131,48.8333 132,50.1667 133,51.5C 133.12,48.0448 133.62,45.3781 134.5,43.5C 134.593,54.7593 140.259,60.5926 151.5,61C 158,67.5 164.5,74 171,80.5C 171.667,81.1667 171.667,81.8333 171,82.5C 163.649,89.6567 162.649,97.6567 168,106.5C 174.598,113.043 182.098,114.209 190.5,110C 196.652,104.878 198.818,98.3785 197,90.5C 194.681,83.5206 189.848,79.3539 182.5,78C 177.603,73.2713 172.936,68.438 168.5,63.5C 170.882,58.8054 173.216,54.1387 175.5,49.5C 173.602,49.0037 172.602,48.337 172.5,47.5C 174.167,47.5 175.833,47.5 177.5,47.5C 176.68,51.1976 178.013,53.5309 181.5,54.5C 184.092,52.9739 185.092,50.6405 184.5,47.5C 188.92,48.1986 191.42,46.532 192,42.5C 189.903,41.009 187.57,40.009 185,39.5C 185.592,35.1019 183.759,33.1019 179.5,33.5C 177.834,32.3336 176.167,32.3336 174.5,33.5C 174.833,34.1667 175.167,34.8333 175.5,35.5C 174.988,38.5321 173.322,39.6987 170.5,39C 170.833,38.6667 171.167,38.3333 171.5,38C 170.575,31.8134 166.909,29.1467 160.5,30C 156.024,26.4817 156.024,23.315 160.5,20.5C 156.514,18.9561 152.847,19.4561 149.5,22C 150.833,22.3333 152.167,22.6667 153.5,23C 152.577,25.0408 152.244,27.2075 152.5,29.5C 150.801,29.6602 149.134,29.4935 147.5,29C 144.486,25.9659 140.819,24.7992 136.5,25.5C 136.5,23.8333 136.5,22.1667 136.5,20.5C 138.807,20.0137 140.973,20.0137 143,20.5C 144.188,19.4366 144.688,18.1033 144.5,16.5C 146.787,16.2761 148.953,15.6094 151,14.5C 153.256,16.0855 155.756,16.7521 158.5,16.5C 158.5,14.8333 158.5,13.1667 158.5,11.5C 160.38,11.7709 161.713,11.1042 162.5,9.5C 177.853,4.6296 193.519,1.29627 209.5,-0.5 Z"/></g>
<g><path style="opacity:1" fill="#f2f4f4" d="M 269.5,49.5 C 273.803,49.7352 275.47,52.0685 274.5,56.5C 276.527,56.3379 278.527,56.5045 280.5,57C 282.007,57.8373 282.507,59.0039 282,60.5C 280.174,62.0738 278.007,62.9071 275.5,63C 274.751,64.7337 274.251,66.567 274,68.5C 272.604,70.5268 270.938,70.8602 269,69.5C 268.505,67.5273 268.338,65.5273 268.5,63.5C 266.473,63.6621 264.473,63.4955 262.5,63C 259.007,61.5219 258.674,59.5219 261.5,57C 263.764,56.7638 265.931,56.2638 268,55.5C 268.315,53.4144 268.815,51.4144 269.5,49.5 Z"/></g>
<g><path style="opacity:1" fill="#0c202b" d="M 225.5,17.5 C 239.123,15.48 247.123,21.1467 249.5,34.5C 247.399,49.0872 239.066,54.9205 224.5,52C 214.026,45.6001 211.193,36.7668 216,25.5C 218.772,22.2166 221.939,19.5499 225.5,17.5 Z"/></g>
<g><path style="opacity:1" fill="#f5f7f7" d="M 228.5,24.5 C 237.854,24.6811 242.02,29.3478 241,38.5C 235.095,47.3445 228.762,47.6778 222,39.5C 221.333,36.5 221.333,33.5 222,30.5C 224.063,28.2659 226.229,26.2659 228.5,24.5 Z"/></g>
<g><path style="opacity:1" fill="#f5f7f7" d="M 168.5,63.5 C 172.936,68.438 177.603,73.2713 182.5,78C 189.848,79.3539 194.681,83.5206 197,90.5C 198.818,98.3785 196.652,104.878 190.5,110C 182.098,114.209 174.598,113.043 168,106.5C 162.649,97.6567 163.649,89.6567 171,82.5C 171.667,81.8333 171.667,81.1667 171,80.5C 164.5,74 158,67.5 151.5,61C 140.259,60.5926 134.593,54.7593 134.5,43.5C 136.256,39.9072 138.923,37.0738 142.5,35C 156.38,33.565 161.88,39.7317 159,53.5C 161.696,57.3607 164.863,60.694 168.5,63.5 Z"/></g>
<g><path style="opacity:1" fill="#101920" d="M 144.5,43.5 C 149.006,42.5272 151.172,44.1939 151,48.5C 147.507,51.5018 145.007,50.8351 143.5,46.5C 143.685,45.4163 144.018,44.4163 144.5,43.5 Z"/></g>
<g><path style="opacity:0.584" fill="#979ca2" d="M 64.5,68.5 C 62.5698,72.1002 59.9031,75.1002 56.5,77.5C 58.4302,73.8998 61.0969,70.8998 64.5,68.5 Z"/></g>
<g><path style="opacity:1" fill="#f5f7f7" d="M 310.5,34.5 C 323.873,33.3711 329.373,39.3711 327,52.5C 323.263,58.6191 317.763,61.4524 310.5,61C 304,67.5 297.5,74 291,80.5C 290.333,81.1667 290.333,81.8333 291,82.5C 298,89.1224 299.333,96.7891 295,105.5C 289.996,112.023 283.496,114.19 275.5,112C 266.797,107.426 263.297,100.259 265,90.5C 267.377,83.4545 272.21,79.2878 279.5,78C 287.333,70.1667 295.167,62.3333 303,54.5C 300.767,45.98 303.267,39.3134 310.5,34.5 Z"/></g>
<g><path style="opacity:1" fill="#111c23" d="M 312.5,43.5 C 317.006,42.5272 319.172,44.1939 319,48.5C 317.116,50.5763 314.949,50.9097 312.5,49.5C 311.181,47.4684 311.181,45.4684 312.5,43.5 Z"/></g>
<g><path style="opacity:1" fill="#000b11" d="M 236.5,63.5 C 237.552,63.3505 238.552,63.5172 239.5,64C 237.516,87.2705 236.849,110.77 237.5,134.5C 239.527,134.338 241.527,134.505 243.5,135C 241.19,135.497 238.857,135.663 236.5,135.5C 236.5,111.5 236.5,87.5 236.5,63.5 Z"/></g>
<g><path style="opacity:0.725" fill="#90999f" d="M 53.5,80.5 C 53.2624,82.4044 52.2624,83.7377 50.5,84.5C 50.7376,82.5956 51.7376,81.2623 53.5,80.5 Z"/></g>
<g><path style="opacity:0.91" fill="#747d81" d="M 50.5,84.5 C 49.9202,86.7488 48.5869,88.4154 46.5,89.5C 47.0798,87.2512 48.4131,85.5846 50.5,84.5 Z"/></g>
<g><path style="opacity:0.714" fill="#8f969b" d="M 46.5,89.5 C 46.2624,91.4044 45.2624,92.7377 43.5,93.5C 43.7376,91.5956 44.7376,90.2623 46.5,89.5 Z"/></g>
<g><path style="opacity:1" fill="#f4f6f6" d="M 366.5,139.5 C 363.169,141.298 359.502,141.964 355.5,141.5C 350.505,141.875 348.505,139.542 349.5,134.5C 346.933,134.145 344.433,133.479 342,132.5C 339.589,133.987 337.089,134.821 334.5,135C 329.976,131.729 327.143,127.562 326,122.5C 328.988,119.676 328.988,116.676 326,113.5C 324.67,112.418 323.17,111.751 321.5,111.5C 320.791,110.596 319.791,110.263 318.5,110.5C 318.214,104.741 318.548,99.0748 319.5,93.5C 325.017,93.8813 328.017,91.2146 328.5,85.5C 328.297,83.7923 327.464,82.459 326,81.5C 325.333,80.1667 325.333,78.8333 326,77.5C 328.833,74.6667 331.667,71.8333 334.5,69C 337.411,69.9484 340.411,70.6151 343.5,71C 348.294,69.4316 350.96,66.0983 351.5,61C 356.167,60.3333 360.833,60.3333 365.5,61C 365.968,66.7063 368.968,70.2063 374.5,71.5C 376.972,69.7486 379.639,68.9153 382.5,69C 386.016,72.3486 389.349,75.8486 392.5,79.5C 390.774,81.2279 389.441,83.2279 388.5,85.5C 389.792,87.6666 390.625,89.9999 391,92.5C 393.381,93.435 395.881,93.7683 398.5,93.5C 398.5,99.5 398.5,105.5 398.5,111.5C 395.881,111.232 393.381,111.565 391,112.5C 390.305,114.722 389.472,116.889 388.5,119C 388.93,120.434 389.764,121.601 391,122.5C 391.667,123.5 391.667,124.5 391,125.5C 388.049,128.572 385.216,131.739 382.5,135C 379.09,133.493 375.424,132.826 371.5,133C 367.717,133.609 366.05,135.776 366.5,139.5 Z"/></g>
<g><path style="opacity:0.678" fill="#9ea3a9" d="M 43.5,93.5 C 43.5,94.1667 43.5,94.8333 43.5,95.5C 42.5,96.1667 41.5,96.8333 40.5,97.5C 40.7376,95.5956 41.7376,94.2623 43.5,93.5 Z"/></g>
<g><path style="opacity:1" fill="#444e53" d="M 223.5,62.5 C 224.5,62.5 225.5,62.5 226.5,62.5C 226.5,87.1667 226.5,111.833 226.5,136.5C 224.167,136.5 221.833,136.5 219.5,136.5C 221.265,135.539 223.265,135.205 225.5,135.5C 226.142,110.938 225.475,86.6048 223.5,62.5 Z"/></g>
<g><path style="opacity:1" fill="#0b1e2a" d="M 278.5,88.5 C 285.484,88.3167 288.317,91.65 287,98.5C 283,102.5 279,102.5 275,98.5C 273.581,94.0823 274.748,90.7489 278.5,88.5 Z"/></g>
<g><path style="opacity:1" fill="#b6c0c3" d="M 319.5,93.5 C 318.548,99.0748 318.214,104.741 318.5,110.5C 319.791,110.263 320.791,110.596 321.5,111.5C 320.167,111.5 318.833,111.5 317.5,111.5C 316.88,105.074 317.547,99.0738 319.5,93.5 Z"/></g>
<g><path style="opacity:1" fill="#0f1e27" d="M 178.5,88.5 C 185.771,88.0357 188.604,91.3691 187,98.5C 183,102.5 179,102.5 175,98.5C 174.333,96.5 174.333,94.5 175,92.5C 176.376,91.2949 177.542,89.9616 178.5,88.5 Z"/></g>
<g><path style="opacity:0.549" fill="#acb0b3" d="M 40.5,97.5 C 40.573,99.0269 39.9063,100.027 38.5,100.5C 38.427,98.9731 39.0937,97.9731 40.5,97.5 Z"/></g>
<g><path style="opacity:0.561" fill="#98a2a6" d="M 38.5,100.5 C 38.573,102.027 37.9063,103.027 36.5,103.5C 36.427,101.973 37.0937,100.973 38.5,100.5 Z"/></g>
<g><path style="opacity:0.529" fill="#a1aaaf" d="M 36.5,103.5 C 36.573,105.027 35.9063,106.027 34.5,106.5C 34.427,104.973 35.0937,103.973 36.5,103.5 Z"/></g>
<g><path style="opacity:1" fill="#0e202b" d="M 350.5,74.5 C 371.086,72.2637 382.753,81.2637 385.5,101.5C 384.017,118.65 374.684,127.65 357.5,128.5C 352.446,128.871 347.779,127.704 343.5,125C 332.369,116.272 328.869,105.105 333,91.5C 336.745,83.5871 342.578,77.9205 350.5,74.5 Z"/></g>
<g><path style="opacity:1" fill="#f9fafa" d="M 353.5,81.5 C 370.966,81.466 378.8,90.1326 377,107.5C 370.688,120.495 360.855,123.995 347.5,118C 334.102,103.365 336.102,91.1979 353.5,81.5 Z"/></g>
<g><path style="opacity:0.608" fill="#939ea2" d="M 33.5,108.5 C 33.573,110.027 32.9063,111.027 31.5,111.5C 31.427,109.973 32.0937,108.973 33.5,108.5 Z"/></g>
<g><path style="opacity:0.443" fill="#bdc8cc" d="M 31.5,111.5 C 31.573,113.027 30.9063,114.027 29.5,114.5C 29.427,112.973 30.0937,111.973 31.5,111.5 Z"/></g>
<g><path style="opacity:0.416" fill="#b8c4c9" d="M 26.5,120.5 C 26.573,122.027 25.9063,123.027 24.5,123.5C 24.427,121.973 25.0937,120.973 26.5,120.5 Z"/></g>
<g><path style="opacity:1" fill="#0e212a" d="M 91.5,81.5 C 109.613,81.4462 118.447,90.4462 118,108.5C 111.317,125.924 99.4836,130.758 82.5,123C 73.2685,114.38 71.1018,104.213 76,92.5C 79.7464,86.7203 84.9131,83.0536 91.5,81.5 Z"/></g>
<g><path style="opacity:1" fill="#f8faf9" d="M 92.5,88.5 C 107.17,89.6622 112.67,97.3289 109,111.5C 99.8742,122.1 90.8742,122.1 82,111.5C 78.4866,100.532 81.9866,92.8649 92.5,88.5 Z"/></g>
<g><path style="opacity:1" fill="#e9eeef" d="M 149.5,123.5 C 155.704,123.314 157.037,125.814 153.5,131C 147.808,130.783 146.475,128.283 149.5,123.5 Z"/></g>
<g><path style="opacity:1" fill="#f4f6f6" d="M 413.5,136.5 C 423.703,134.414 429.37,138.414 430.5,148.5C 430.72,154.57 428.053,158.737 422.5,161C 414.176,160.779 405.843,160.779 397.5,161C 393.667,164.833 389.833,168.667 386,172.5C 389.682,183.964 386.848,193.464 377.5,201C 362.344,208.059 351.511,203.893 345,188.5C 343.709,170.125 352.209,161.292 370.5,162C 373.112,162.639 375.446,163.806 377.5,165.5C 382.351,160.815 387.351,156.315 392.5,152C 396.821,151.501 401.154,151.334 405.5,151.5C 404.801,144.558 407.468,139.558 413.5,136.5 Z"/></g>
<g><path style="opacity:1" fill="#606d73" d="M 366.5,139.5 C 366.5,140.5 366.5,141.5 366.5,142.5C 362.629,142.815 358.962,142.482 355.5,141.5C 359.502,141.964 363.169,141.298 366.5,139.5 Z"/></g>
<g><path style="opacity:1" fill="#17242d" d="M 416.5,144.5 C 421.258,145.022 422.592,147.522 420.5,152C 414.413,152.205 413.079,149.705 416.5,144.5 Z"/></g>
<g><path style="opacity:1" fill="#7b8388" d="M 12.5,151.5 C 12.8799,153.698 12.2132,155.365 10.5,156.5C 10.7959,154.597 11.4625,152.93 12.5,151.5 Z"/></g>
<g><path style="opacity:0.996" fill="#6c7b80" d="M 10.5,157.5 C 10.5905,160.152 9.92381,162.485 8.5,164.5C 8.40953,161.848 9.07619,159.515 10.5,157.5 Z"/></g>
<g><path style="opacity:1" fill="#0f212b" d="M 228.5,145.5 C 235.368,145.53 238.535,148.864 238,155.5C 237.385,157.116 236.385,158.449 235,159.5C 234.501,164.823 234.334,170.156 234.5,175.5C 242.507,175.666 250.507,175.5 258.5,175C 267.908,170.282 272.075,173.116 271,183.5C 266.609,187.655 262.442,187.489 258.5,183C 247.5,182.667 236.5,182.333 225.5,182C 223.972,179.482 224.306,177.315 226.5,175.5C 227.663,170.198 227.829,164.864 227,159.5C 225.304,157.44 224.137,155.107 223.5,152.5C 224.769,149.895 226.436,147.562 228.5,145.5 Z"/></g>
<g><path style="opacity:1" fill="#0c222d" d="M 360.5,172.5 C 368.128,171.065 373.628,173.732 377,180.5C 377.741,185.519 375.908,189.353 371.5,192C 360.193,195.352 354.693,191.185 355,179.5C 356.666,177.004 358.5,174.671 360.5,172.5 Z"/></g>
<g><path style="opacity:1" fill="#11212a" d="M 192.5,172.5 C 201.549,172.701 204.215,176.868 200.5,185C 191.931,188.312 188.098,185.479 189,176.5C 189.69,174.65 190.856,173.316 192.5,172.5 Z"/></g>
<g><path style="opacity:1" fill="#848a8a" d="M 232.5,198.5 C 232.5,202.833 232.5,207.167 232.5,211.5C 230.5,211.5 228.5,211.5 226.5,211.5C 227.919,210.549 229.585,210.216 231.5,210.5C 231.183,206.298 231.517,202.298 232.5,198.5 Z"/></g>
<g><path style="opacity:1" fill="#0f2432" d="M 153.5,200.5 C 160.325,199.595 166.658,200.762 172.5,204C 176.26,209.618 176.426,215.451 173,221.5C 168.785,224.888 163.951,226.221 158.5,225.5C 158.665,228.518 158.498,231.518 158,234.5C 156,237.167 154,237.167 152,234.5C 151.333,223.833 151.333,213.167 152,202.5C 152.717,201.956 153.217,201.289 153.5,200.5 Z"/></g>
<g><path style="opacity:1" fill="#e9eef0" d="M 158.5,207.5 C 167.99,206.138 170.657,209.638 166.5,218C 163.986,219.252 161.32,219.752 158.5,219.5C 158.5,215.5 158.5,211.5 158.5,207.5 Z"/></g>
<g><path style="opacity:1" fill="#0c222b" d="M 226.5,211.5 C 228.5,211.5 230.5,211.5 232.5,211.5C 232.5,207.167 232.5,202.833 232.5,198.5C 234.198,195.876 236.031,195.876 238,198.5C 238.5,210.829 238.667,223.162 238.5,235.5C 223.786,238.623 217.62,232.623 220,217.5C 221.099,214.267 223.265,212.267 226.5,211.5 Z"/></g>
<g><path style="opacity:1" fill="#1a2c35" d="M 180.5,210.5 C 182.484,210.383 184.15,211.05 185.5,212.5C 189.2,209.475 192.2,209.975 194.5,214C 194.241,215.261 193.574,216.261 192.5,217C 189.993,217.093 187.826,217.926 186,219.5C 185.667,224.5 185.333,229.5 185,234.5C 183,237.167 181,237.167 179,234.5C 178.333,227.167 178.333,219.833 179,212.5C 179.717,211.956 180.217,211.289 180.5,210.5 Z"/></g>
<g><path style="opacity:1" fill="#0c1f2b" d="M 303.5,216.5 C 301.833,216.5 300.167,216.5 298.5,216.5C 298.185,220.371 298.518,224.038 299.5,227.5C 300.048,230.084 301.715,231.084 304.5,230.5C 304.671,235.494 302.338,237.328 297.5,236C 295.274,234.773 293.774,232.939 293,230.5C 292.501,225.845 292.334,221.179 292.5,216.5C 290.833,216.5 289.167,216.5 287.5,216.5C 286.833,212.5 288.5,210.833 292.5,211.5C 292.335,208.482 292.502,205.482 293,202.5C 294.667,201.167 296.333,201.167 298,202.5C 298.498,205.482 298.665,208.482 298.5,211.5C 300.527,211.338 302.527,211.505 304.5,212C 305.916,213.915 305.582,215.415 303.5,216.5 Z"/></g>
<g><path style="opacity:1" fill="#eff2f1" d="M 227.5,217.5 C 229.167,217.5 230.833,217.5 232.5,217.5C 232.5,221.5 232.5,225.5 232.5,229.5C 229.453,230.145 227.287,229.145 226,226.5C 225.207,223.259 225.707,220.259 227.5,217.5 Z"/></g>
<g><path style="opacity:1" fill="#b3bcc3" d="M 303.5,216.5 C 302.432,217.434 301.099,217.768 299.5,217.5C 299.5,220.833 299.5,224.167 299.5,227.5C 298.518,224.038 298.185,220.371 298.5,216.5C 300.167,216.5 301.833,216.5 303.5,216.5 Z"/></g>
<g><path style="opacity:1" fill="#233337" d="M 137.5,219.5 C 137.5,220.5 137.5,221.5 137.5,222.5C 112.994,222.831 88.6609,222.498 64.5,221.5C 89.0619,222.142 113.395,221.475 137.5,219.5 Z"/></g>
<g><path style="opacity:1" fill="#28353a" d="M 324.5,215.5 C 325.461,217.265 325.795,219.265 325.5,221.5C 349.575,221.823 373.575,221.49 397.5,220.5C 373.523,222.49 349.19,223.157 324.5,222.5C 324.5,220.167 324.5,217.833 324.5,215.5 Z"/></g>
<g><path style="opacity:1" fill="#132830" d="M 202.5,210.5 C 217.446,212.391 221.279,220.057 214,233.5C 205.647,238.66 199.647,236.66 196,227.5C 194.305,220.241 196.472,214.575 202.5,210.5 Z"/></g>
<g><path style="opacity:1" fill="#f5f8f6" d="M 204.5,216.5 C 207.238,215.965 209.072,216.965 210,219.5C 210.667,222.167 210.667,224.833 210,227.5C 207.667,230.167 205.333,230.167 203,227.5C 202.013,223.525 202.513,219.859 204.5,216.5 Z"/></g>
<g><path style="opacity:1" fill="#0e212b" d="M 418.5,208.5 C 435.232,206.731 443.066,214.064 442,230.5C 438.338,241.252 430.838,245.752 419.5,244C 407.503,237.343 404.337,227.843 410,215.5C 412.628,212.79 415.461,210.456 418.5,208.5 Z"/></g>
<g><path style="opacity:1" fill="#f6f8f7" d="M 421.5,215.5 C 432.668,215.535 436.835,220.868 434,231.5C 428.897,237.263 423.23,237.93 417,233.5C 412.667,225.957 414.167,219.957 421.5,215.5 Z"/></g>
<g><path style="opacity:1" fill="#12232f" d="M 273.5,210.5 C 278.06,209.658 281.727,210.991 284.5,214.5C 282.702,217.575 280.202,218.242 277,216.5C 271.572,219.922 271.072,224.089 275.5,229C 278.758,229.212 281.924,229.712 285,230.5C 285.667,231.5 285.667,232.5 285,233.5C 277.181,238.528 271.181,236.861 267,228.5C 264.719,220.708 266.885,214.708 273.5,210.5 Z"/></g>
<g><path style="opacity:1" fill="#152834" d="M 244.5,210.5 C 246.39,210.297 247.89,210.963 249,212.5C 249.333,217.5 249.667,222.5 250,227.5C 252.269,230.054 254.602,230.054 257,227.5C 257.333,222.167 257.667,216.833 258,211.5C 259.938,210.14 261.604,210.473 263,212.5C 263.667,218.167 263.667,223.833 263,229.5C 261.276,234.036 257.943,236.369 253,236.5C 247.918,236.09 244.584,233.423 243,228.5C 242.333,223.167 242.333,217.833 243,212.5C 243.717,211.956 244.217,211.289 244.5,210.5 Z"/></g>
<g><path style="opacity:1" fill="#434e54" d="M 64.5,233.5 C 88.6609,232.502 112.994,232.169 137.5,232.5C 137.5,234.5 137.5,236.5 137.5,238.5C 136.549,237.081 136.216,235.415 136.5,233.5C 112.5,233.5 88.5,233.5 64.5,233.5 Z"/></g>
<g><path style="opacity:1" fill="#414c53" d="M 397.5,234.5 C 373.575,233.51 349.575,233.177 325.5,233.5C 325.795,235.735 325.461,237.735 324.5,239.5C 324.5,237.167 324.5,234.833 324.5,232.5C 349.19,231.843 373.523,232.51 397.5,234.5 Z"/></g>
<g><path style="opacity:1" fill="#0c222d" d="M 30.5,208.5 C 44.1605,206.488 52.4938,212.154 55.5,225.5C 53.2469,240.277 44.9136,246.11 30.5,243C 19.6681,237.483 16.5014,228.983 21,217.5C 23.4057,213.592 26.5724,210.592 30.5,208.5 Z"/></g>
<g><path style="opacity:1" fill="#f5f7f7" d="M 33.5,215.5 C 46.5668,216.137 50.2335,222.304 44.5,234C 32.7396,239.041 26.9063,235.208 27,222.5C 28.6941,219.642 30.8607,217.309 33.5,215.5 Z"/></g>
<g><path style="opacity:1" fill="#f4f6f6" d="M 406.5,314.5 C 406.5,312.5 406.5,310.5 406.5,308.5C 402.5,308.5 398.5,308.5 394.5,308.5C 388.535,303.036 382.702,297.37 377,291.5C 361.907,297.916 351.24,293.582 345,278.5C 343.341,265.649 348.508,256.816 360.5,252C 373.843,250.255 382.676,255.755 387,268.5C 387.667,271.5 387.667,274.5 387,277.5C 385.487,280.024 384.82,282.691 385,285.5C 389.167,289.667 393.333,293.833 397.5,298C 405.52,298.39 413.52,298.39 421.5,298C 431.661,302.809 433.828,309.975 428,319.5C 422.549,324.16 416.716,324.66 410.5,321C 408.266,319.362 406.933,317.195 406.5,314.5 Z"/></g>
<g><path style="opacity:1" fill="#55676b" d="M 258.5,245.5 C 259.167,250.833 259.833,256.167 260.5,261.5C 260.44,262.043 260.107,262.376 259.5,262.5C 258.505,256.872 258.171,251.206 258.5,245.5 Z"/></g>
<g><path style="opacity:1" fill="#142630" d="M 187.5,245.5 C 189.144,245.286 190.644,245.62 192,246.5C 192.499,251.155 192.666,255.821 192.5,260.5C 195.167,260.5 197.833,260.5 200.5,260.5C 200.334,256.154 200.501,251.821 201,247.5C 203,244.833 205,244.833 207,247.5C 207.667,258.167 207.667,268.833 207,279.5C 205,282.167 203,282.167 201,279.5C 200.501,275.514 200.334,271.514 200.5,267.5C 197.833,267.5 195.167,267.5 192.5,267.5C 192.666,271.846 192.499,276.179 192,280.5C 189.733,281.935 187.733,281.602 186,279.5C 185.333,268.833 185.333,258.167 186,247.5C 186.717,246.956 187.217,246.289 187.5,245.5 Z"/></g>
<g><path style="opacity:1" fill="#0f2732" d="M 258.5,245.5 C 258.171,251.206 258.505,256.872 259.5,262.5C 260.107,262.376 260.44,262.043 260.5,261.5C 261.933,260.167 263.267,258.667 264.5,257C 266.167,256.333 267.833,256.333 269.5,257C 270.022,257.561 270.355,258.228 270.5,259C 268.833,261.333 267.167,263.667 265.5,266C 267.651,269.49 269.818,272.99 272,276.5C 273.167,280.667 271.667,282.167 267.5,281C 265.033,277.884 262.699,274.718 260.5,271.5C 259.833,274.5 259.167,277.5 258.5,280.5C 256.629,281.767 254.796,281.767 253,280.5C 252.333,268.5 252.333,256.5 253,244.5C 255.235,243.02 257.068,243.353 258.5,245.5 Z"/></g>
<g><path style="opacity:1" fill="#eef3f4" d="M 434.5,267.5 C 439.486,267.305 441.152,269.472 439.5,274C 432.561,275.574 430.894,273.407 434.5,267.5 Z"/></g>
<g><path style="opacity:1" fill="#0a212c" d="M 361.5,262.5 C 373.044,261.208 377.877,266.208 376,277.5C 372.565,282.794 367.732,284.627 361.5,283C 352.246,276.126 352.246,269.293 361.5,262.5 Z"/></g>
<g><path style="opacity:1" fill="#10242f" d="M 236.5,256.5 C 239.518,256.335 242.518,256.502 245.5,257C 248.73,258.724 249.064,260.724 246.5,263C 237.141,261.033 234.308,264.533 238,273.5C 238.804,274.804 239.971,275.471 241.5,275.5C 243.56,274.472 245.56,274.472 247.5,275.5C 249.114,278.157 248.448,279.99 245.5,281C 238.661,283.212 233.827,281.045 231,274.5C 230.333,270.5 230.333,266.5 231,262.5C 232.36,259.977 234.193,257.977 236.5,256.5 Z"/></g>
<g><path style="opacity:1" fill="#0f212b" d="M 213.5,256.5 C 218.162,255.804 222.329,256.804 226,259.5C 227.429,266.719 227.929,274.053 227.5,281.5C 224.156,280.382 220.822,280.382 217.5,281.5C 211.288,280.427 209.121,276.76 211,270.5C 213.686,267.266 217.186,265.6 221.5,265.5C 221.023,264.522 220.357,263.689 219.5,263C 216.905,262.774 214.405,262.274 212,261.5C 211.387,259.505 211.887,257.838 213.5,256.5 Z"/></g>
<g><path style="opacity:1" fill="#fafbfa" d="M 216.5,272.5 C 217.833,272.5 219.167,272.5 220.5,272.5C 220.5,273.5 220.5,274.5 220.5,275.5C 219.167,275.5 217.833,275.5 216.5,275.5C 216.5,274.5 216.5,273.5 216.5,272.5 Z"/></g>
<g><path style="opacity:1" fill="#9ca4a5" d="M 216.5,272.5 C 217.919,271.549 219.585,271.216 221.5,271.5C 221.768,273.099 221.434,274.432 220.5,275.5C 220.5,274.5 220.5,273.5 220.5,272.5C 219.167,272.5 217.833,272.5 216.5,272.5 Z"/></g>
<g><path style="opacity:1" fill="#dce2e3" d="M 332.5,291.5 C 339.004,291.138 340.671,293.638 337.5,299C 330.745,299.756 329.078,297.256 332.5,291.5 Z"/></g>
<g><path style="opacity:1" fill="#10252e" d="M 228.5,301.5 C 235.657,301.155 238.824,304.488 238,311.5C 234.171,317.703 229.838,318.036 225,312.5C 223.663,307.916 224.829,304.249 228.5,301.5 Z"/></g>
<g><path style="opacity:1" fill="#606c72" d="M 394.5,308.5 C 398.5,308.5 402.5,308.5 406.5,308.5C 406.5,310.5 406.5,312.5 406.5,314.5C 405.549,313.081 405.216,311.415 405.5,309.5C 401.629,309.815 397.962,309.482 394.5,308.5 Z"/></g>
<g><path style="opacity:1" fill="#213139" d="M 416.5,306.5 C 422.488,306.664 423.821,309.164 420.5,314C 414.403,314.147 413.07,311.647 416.5,306.5 Z"/></g>
<g><path style="opacity:1" fill="#c7d1d6" d="M 274.5,315.5 C 274.56,314.957 274.893,314.624 275.5,314.5C 276.824,325.993 276.824,337.326 275.5,348.5C 275.828,337.321 275.495,326.321 274.5,315.5 Z"/></g>
<g><path style="opacity:1" fill="#000b11" d="M 239.5,326.5 C 240.873,326.343 242.207,326.51 243.5,327C 241.527,327.495 239.527,327.662 237.5,327.5C 236.865,347.068 237.532,366.401 239.5,385.5C 238.5,385.5 237.5,385.5 236.5,385.5C 236.5,365.833 236.5,346.167 236.5,326.5C 237.5,326.5 238.5,326.5 239.5,326.5 Z"/></g>
<g><path style="opacity:1" fill="#465055" d="M 188.5,316.5 C 187.506,326.987 187.172,337.654 187.5,348.5C 186.176,337.66 186.176,326.66 187.5,315.5C 188.107,315.624 188.44,315.957 188.5,316.5 Z"/></g>
<g><path style="opacity:1" fill="#10222b" d="M 359.5,340.5 C 366.827,339.329 369.994,342.329 369,349.5C 364.819,354.769 360.819,354.769 357,349.5C 355.927,345.9 356.76,342.9 359.5,340.5 Z"/></g>
<g><path style="opacity:1" fill="#0a202b" d="M 43.5,95.5 C 43.7118,97.3841 44.7118,98.7174 46.5,99.5C 44.9223,100.298 43.2556,100.798 41.5,101C 41.8333,101.333 42.1667,101.667 42.5,102C 41.1824,104.429 39.5158,106.596 37.5,108.5C 34.53,115.363 36.03,117.03 42,113.5C 47.8905,116.696 54.0571,119.196 60.5,121C 58.6992,121.317 58.3659,121.984 59.5,123C 58.7471,124.487 57.9138,124.654 57,123.5C 56.7297,124.932 57.3964,125.932 59,126.5C 59.6667,125.167 60.6667,124.167 62,123.5C 65.0971,127.397 68.2638,131.23 71.5,135C 72.788,135.239 73.788,134.739 74.5,133.5C 77.0046,133.02 79.3379,132.02 81.5,130.5C 83.6179,131.946 85.9512,132.613 88.5,132.5C 88.3184,134.591 88.6518,136.591 89.5,138.5C 93.7953,139.661 98.1287,139.828 102.5,139C 102.928,136.371 103.928,134.038 105.5,132C 108.085,130.872 110.752,130.039 113.5,129.5C 128.125,142.623 142.291,156.29 156,170.5C 156.667,171.5 156.667,172.5 156,173.5C 144.65,186.708 138.484,202.042 137.5,219.5C 113.395,221.475 89.0619,222.142 64.5,221.5C 62.4502,210.939 56.4502,203.439 46.5,199C 29.1691,194.916 17.0025,201.082 10,217.5C 6.51286,234.694 12.6795,246.86 28.5,254C 46.4257,257.212 58.4257,250.379 64.5,233.5C 88.5,233.5 112.5,233.5 136.5,233.5C 136.216,235.415 136.549,237.081 137.5,238.5C 140.112,267.732 153.112,291.066 176.5,308.5C 177.499,321.817 177.833,335.15 177.5,348.5C 167.206,351.743 163.04,358.743 165,369.5C 167.591,373.027 169.591,376.694 171,380.5C 164.833,386.667 158.667,392.833 152.5,399C 138.537,397.629 133.037,403.796 136,417.5C 142.354,424.687 149.354,425.354 157,419.5C 158.737,414.599 160.07,409.599 161,404.5C 168.167,397.333 175.333,390.167 182.5,383C 186.869,381.733 190.703,379.567 194,376.5C 200.471,364.917 198.304,355.583 187.5,348.5C 187.172,337.654 187.506,326.987 188.5,316.5C 200.438,322.477 213.105,325.811 226.5,326.5C 226.5,346.167 226.5,365.833 226.5,385.5C 208.637,390.872 201.137,402.872 204,421.5C 210.932,438.55 223.432,444.883 241.5,440.5C 245.548,440.605 249.548,440.272 253.5,439.5C 253.36,437.876 254.027,436.71 255.5,436C 255.167,435.667 254.833,435.333 254.5,435C 255.795,432.335 257.795,431.002 260.5,431C 259.704,439.64 255.037,445.14 246.5,447.5C 245.479,448.002 245.312,448.668 246,449.5C 249.346,448.911 249.346,449.578 246,451.5C 241.793,450.583 237.293,450.749 232.5,452C 221.652,452.22 210.985,452.387 200.5,452.5C 192.633,452.133 184.966,450.8 177.5,448.5C 175.485,447.076 173.152,446.41 170.5,446.5C 165.273,445.944 160.273,444.61 155.5,442.5C 154.365,440.787 152.698,440.12 150.5,440.5C 149.391,440.443 148.391,440.11 147.5,439.5C 145.824,437.166 143.491,436.166 140.5,436.5C 139.365,434.787 137.698,434.12 135.5,434.5C 129.182,432.008 123.182,429.008 117.5,425.5C 117.027,424.094 116.027,423.427 114.5,423.5C 112.847,423.34 111.514,422.674 110.5,421.5C 110.027,420.094 109.027,419.427 107.5,419.5C 107.027,418.094 106.027,417.427 104.5,417.5C 104.027,416.094 103.027,415.427 101.5,415.5C 101.027,414.094 100.027,413.427 98.5,413.5C 98.0269,412.094 97.0269,411.427 95.5,411.5C 94.7377,409.738 93.4044,408.738 91.5,408.5C 90.7377,406.738 89.4044,405.738 87.5,405.5C 86.4154,403.413 84.7488,402.08 82.5,401.5C 80.7607,398.757 78.4274,396.757 75.5,395.5C 73.1002,392.097 70.1002,389.43 66.5,387.5C 64.1667,385.833 62.1667,383.833 60.5,381.5C 59.9202,379.251 58.5869,377.585 56.5,376.5C 33.0266,350.571 16.5266,320.571 7,286.5C 3.72808,273.843 1.22808,261.177 -0.5,248.5C -0.5,234.167 -0.5,219.833 -0.5,205.5C 0.937678,196.966 2.43768,188.299 4,179.5C 5.05828,174.244 6.55828,169.244 8.5,164.5C 9.92381,162.485 10.5905,160.152 10.5,157.5C 10.5,157.167 10.5,156.833 10.5,156.5C 12.2132,155.365 12.8799,153.698 12.5,151.5C 15.4314,141.645 19.4314,132.312 24.5,123.5C 25.9063,123.027 26.573,122.027 26.5,120.5C 26.9925,118.181 27.9925,116.181 29.5,114.5C 30.9063,114.027 31.573,113.027 31.5,111.5C 32.9063,111.027 33.573,110.027 33.5,108.5C 33.3284,107.508 33.6618,106.842 34.5,106.5C 35.9063,106.027 36.573,105.027 36.5,103.5C 37.9063,103.027 38.573,102.027 38.5,100.5C 39.9063,100.027 40.573,99.0269 40.5,97.5C 41.5,96.8333 42.5,96.1667 43.5,95.5 Z"/></g>
<g><path style="opacity:1" fill="#f5f7f6" d="M 96.5,267.5 C 99.3245,267.081 101.491,268.081 103,270.5C 103.499,274.486 103.666,278.486 103.5,282.5C 114.785,283.308 123.451,288.474 129.5,298C 130.5,298.667 131.5,298.667 132.5,298C 134.748,296.086 137.248,294.586 140,293.5C 144.318,295.239 145.485,298.239 143.5,302.5C 140.116,304.187 137.116,306.353 134.5,309C 135.816,316.16 135.816,323.327 134.5,330.5C 137.47,333.295 140.637,335.962 144,338.5C 145.416,342.508 144.082,344.841 140,345.5C 136.426,343.862 132.926,342.362 129.5,341C 124.155,344.74 121.988,349.907 123,356.5C 122.426,358.492 121.259,359.992 119.5,361C 105.5,361.667 91.5,361.667 77.5,361C 76.6667,360.167 75.8333,359.333 75,358.5C 74.6667,354.833 74.3333,351.167 74,347.5C 71.6667,345.167 69.3333,342.833 67,340.5C 63.3555,344.558 59.0221,345.891 54,344.5C 53.231,341.901 53.3977,339.401 54.5,337C 57.8338,335.669 60.8338,333.835 63.5,331.5C 61.9504,327.691 61.2837,323.691 61.5,319.5C 61.5572,315.961 61.8906,312.461 62.5,309C 59.4557,306.388 56.289,303.888 53,301.5C 51.7476,297.074 53.4142,294.408 58,293.5C 60.4564,295.786 63.2897,297.453 66.5,298.5C 71.9955,291.407 78.9955,286.24 87.5,283C 89.4727,282.505 91.4727,282.338 93.5,282.5C 93.3345,278.486 93.5012,274.486 94,270.5C 95.045,269.627 95.8783,268.627 96.5,267.5 Z"/></g>
<g><path style="opacity:1" fill="#6c7982" d="M 83.5,343.5 C 84.4731,345.948 84.8064,348.615 84.5,351.5C 87.5,351.5 90.5,351.5 93.5,351.5C 90.3752,352.479 87.0419,352.813 83.5,352.5C 83.5,349.5 83.5,346.5 83.5,343.5 Z"/></g>
<g><path style="opacity:1" fill="#0c212c" d="M 93.5,351.5 C 90.5,351.5 87.5,351.5 84.5,351.5C 84.8064,348.615 84.4731,345.948 83.5,343.5C 79.3027,339.477 75.8027,334.81 73,329.5C 67.9765,311.048 74.4765,298.548 92.5,292C 108.903,290.284 120.069,297.118 126,312.5C 127.877,324.874 123.877,334.874 114,342.5C 113.502,345.817 113.335,349.15 113.5,352.5C 110.167,352.5 106.833,352.5 103.5,352.5C 103.334,346.158 103.5,339.825 104,333.5C 111.704,328.721 114.038,322.054 111,313.5C 101.519,303.648 92.8528,304.315 85,315.5C 83.4203,323.439 86.087,329.439 93,333.5C 93.4995,339.491 93.6662,345.491 93.5,351.5 Z"/></g>
<g><path style="opacity:1" fill="#101f27" d="M 96.5,316.5 C 101.764,316.417 103.431,318.75 101.5,323.5C 94.7892,324.788 93.1225,322.455 96.5,316.5 Z"/></g>
<g><path style="opacity:1" fill="#f1f6f6" d="M 35.5,267.5 C 41.4877,267.664 42.821,270.164 39.5,275C 33.4128,275.205 32.0795,272.705 35.5,267.5 Z"/></g>
<g><path style="opacity:1" fill="#f4f7f6" d="M 56.5,145.5 C 56.5,147.5 56.5,149.5 56.5,151.5C 60.1667,151.5 63.8333,151.5 67.5,151.5C 72.4536,156.117 77.4536,160.784 82.5,165.5C 94.0556,158.937 104.222,160.604 113,170.5C 119.108,182.14 117.274,192.306 107.5,201C 92.3034,208.047 81.4701,203.88 75,188.5C 74.6411,183.141 74.6411,177.807 75,172.5C 70.6856,169.353 66.8523,165.686 63.5,161.5C 55.5151,160.808 47.5151,160.641 39.5,161C 32.5825,156.913 30.4159,151.08 33,143.5C 37.4558,136.43 43.6225,134.596 51.5,138C 54.1998,139.857 55.8665,142.357 56.5,145.5 Z"/></g>
<g><path style="opacity:1" fill="#0c212b" d="M 90.5,172.5 C 101.331,171.171 106.497,175.838 106,186.5C 102.677,192.908 97.5105,195.075 90.5,193C 82.5536,186.073 82.5536,179.239 90.5,172.5 Z"/></g>
<g><path style="opacity:1" fill="#455259" d="M 56.5,145.5 C 57.4511,146.919 57.7845,148.585 57.5,150.5C 61.0419,150.187 64.3752,150.521 67.5,151.5C 63.8333,151.5 60.1667,151.5 56.5,151.5C 56.5,149.5 56.5,147.5 56.5,145.5 Z"/></g>
<g><path style="opacity:1" fill="#14242d" d="M 42.5,144.5 C 44.1439,144.286 45.6439,144.62 47,145.5C 48.6698,152.18 46.6698,153.846 41,150.5C 40.2516,148.16 40.7516,146.16 42.5,144.5 Z"/></g>
<g><path style="opacity:1" fill="#111e28" d="M 278.5,357.5 C 285.484,357.317 288.317,360.65 287,367.5C 285.179,370.991 282.346,372.157 278.5,371C 274.876,368.839 273.709,365.672 275,361.5C 276.376,360.295 277.542,358.962 278.5,357.5 Z"/></g>
<g><path style="opacity:1" fill="#101f29" d="M 179.5,357.5 C 186.427,357.999 188.927,361.666 187,368.5C 182.568,372.743 178.568,372.41 175,367.5C 173.571,362.783 175.071,359.45 179.5,357.5 Z"/></g>
<g><path style="opacity:1" fill="#fafcfb" d="M 77.5,368.5 C 91.1707,368.333 104.837,368.5 118.5,369C 121.932,371.367 122.265,374.034 119.5,377C 105.5,377.667 91.5,377.667 77.5,377C 74.8987,374.17 74.8987,371.337 77.5,368.5 Z"/></g>
<g><path style="opacity:0.031" fill="#b7c2c6" d="M 56.5,376.5 C 58.5869,377.585 59.9202,379.251 60.5,381.5C 58.4131,380.415 57.0798,378.749 56.5,376.5 Z"/></g>
<g><path style="opacity:1" fill="#f0f3f3" d="M 90.5,384.5 C 95.5111,384.334 100.511,384.501 105.5,385C 108.418,388.472 108.085,391.472 104.5,394C 100.167,394.667 95.8333,394.667 91.5,394C 87.9559,391.127 87.6225,387.96 90.5,384.5 Z"/></g>
<g><path style="opacity:0.78" fill="#abb6b9" d="M 66.5,387.5 C 70.1002,389.43 73.1002,392.097 75.5,395.5C 71.8998,393.57 68.8998,390.903 66.5,387.5 Z"/></g>
<g><path style="opacity:0.984" fill="#919da0" d="M 75.5,395.5 C 78.4274,396.757 80.7607,398.757 82.5,401.5C 79.5726,400.243 77.2393,398.243 75.5,395.5 Z"/></g>
<g><path style="opacity:1" fill="#0d2029" d="M 226.5,395.5 C 242.178,394.679 249.678,402.012 249,417.5C 245.033,428.571 237.2,433.071 225.5,431C 213.571,424.212 210.737,414.712 217,402.5C 220.068,399.917 223.235,397.584 226.5,395.5 Z"/></g>
<g><path style="opacity:0.58" fill="#a9b2b7" d="M 82.5,401.5 C 84.7488,402.08 86.4154,403.413 87.5,405.5C 85.2512,404.92 83.5846,403.587 82.5,401.5 Z"/></g>
<g><path style="opacity:1" fill="#f6f8f8" d="M 227.5,403.5 C 237.988,402.487 242.488,407.154 241,417.5C 234.625,426.712 228.292,426.712 222,417.5C 220.268,411.314 222.101,406.647 227.5,403.5 Z"/></g>
<g><path style="opacity:0.925" fill="#98a4aa" d="M 87.5,405.5 C 89.4044,405.738 90.7377,406.738 91.5,408.5C 89.5956,408.262 88.2623,407.262 87.5,405.5 Z"/></g>
<g><path style="opacity:0.753" fill="#a8b0b4" d="M 91.5,408.5 C 93.4044,408.738 94.7377,409.738 95.5,411.5C 93.5956,411.262 92.2623,410.262 91.5,408.5 Z"/></g>
<g><path style="opacity:1" fill="#132026" d="M 312.5,407.5 C 317.006,406.527 319.172,408.194 319,412.5C 312.645,416.201 310.478,414.534 312.5,407.5 Z"/></g>
<g><path style="opacity:1" fill="#121d23" d="M 145.5,407.5 C 151.016,407.473 152.349,409.64 149.5,414C 143.339,414.878 142.006,412.711 145.5,407.5 Z"/></g>
<g><path style="opacity:0.639" fill="#bcc5c7" d="M 95.5,411.5 C 97.0269,411.427 98.0269,412.094 98.5,413.5C 96.9731,413.573 95.9731,412.906 95.5,411.5 Z"/></g>
<g><path style="opacity:0.667" fill="#b0b9bb" d="M 98.5,413.5 C 100.027,413.427 101.027,414.094 101.5,415.5C 99.9731,415.573 98.9731,414.906 98.5,413.5 Z"/></g>
<g><path style="opacity:0.647" fill="#bcc4c4" d="M 101.5,415.5 C 103.027,415.427 104.027,416.094 104.5,417.5C 102.973,417.573 101.973,416.906 101.5,415.5 Z"/></g>
<g><path style="opacity:0.58" fill="#c4cbd0" d="M 104.5,417.5 C 106.027,417.427 107.027,418.094 107.5,419.5C 105.973,419.573 104.973,418.906 104.5,417.5 Z"/></g>
<g><path style="opacity:0.463" fill="#d8dfe2" d="M 107.5,419.5 C 109.027,419.427 110.027,420.094 110.5,421.5C 108.973,421.573 107.973,420.906 107.5,419.5 Z"/></g>
<g><path style="opacity:0.502" fill="#c9d2d6" d="M 114.5,423.5 C 116.027,423.427 117.027,424.094 117.5,425.5C 115.973,425.573 114.973,424.906 114.5,423.5 Z"/></g>
<g><path style="opacity:1" fill="#838f94" d="M 135.5,434.5 C 137.698,434.12 139.365,434.787 140.5,436.5C 138.597,436.204 136.93,435.537 135.5,434.5 Z"/></g>
<g><path style="opacity:1" fill="#758385" d="M 140.5,436.5 C 143.491,436.166 145.824,437.166 147.5,439.5C 144.843,439.065 142.509,438.065 140.5,436.5 Z"/></g>
<g><path style="opacity:0.988" fill="#878f94" d="M 150.5,440.5 C 152.698,440.12 154.365,440.787 155.5,442.5C 153.597,442.204 151.93,441.537 150.5,440.5 Z"/></g>
<g><path style="opacity:0.714" fill="#627077" d="M 170.5,446.5 C 173.152,446.41 175.485,447.076 177.5,448.5C 174.848,448.59 172.515,447.924 170.5,446.5 Z"/></g>
<g><path style="opacity:1" fill="#404b54" d="M 268.5,451.5 C 264.057,452.801 259.391,453.468 254.5,453.5C 255.952,452.698 257.618,452.198 259.5,452C 258.5,451.667 257.5,451.333 256.5,451C 258.101,450.727 259.601,450.227 261,449.5C 263.106,451.291 265.606,451.958 268.5,451.5 Z"/></g>
</svg>
