<svg width="95" height="95" viewBox="0 0 95 95" fill="none" xmlns="http://www.w3.org/2000/svg">
    <path d="M14.934 39.4338H19.4994V45.0644H24.369V39.4338H28.9371V54.8041H24.369V48.7171H19.4994V54.8041H14.934V39.4338ZM45.2208 39.4338V54.8041H40.8006V43.0796H37.9115V47.4916C37.9115 49.4708 37.7594 51.9065 36.5423 53.2757C35.3239 54.7971 33.0419 55.2535 30.4556 54.7971V50.9992C32.8898 51.457 33.4983 50.5428 33.4983 47.4986V39.4338H45.2208ZM49.0255 39.4338H53.5895L56.1771 48.565L58.7634 39.4338H63.3287L65.4585 54.8041H61.1919L60.1269 46.5886L57.6887 54.8041H54.646L52.2147 46.5886L51.1498 54.8055H46.8887L49.0255 39.4338ZM67.132 39.4338H71.6973V45.6729L76.112 39.4338H81.1365L75.3443 47.0436L81.2761 54.8041H75.8007L71.6918 48.565V54.8041H67.1264L67.132 39.4338ZM47.5 23C20.1079 23 2 32.8904 2 47.4986C2 61.956 20.1079 72 47.5 72C75.0429 72 93 61.9504 93 47.4986C93 32.8904 75.0401 23 47.5 23ZM47.5 69.7165C21.7841 69.7165 4.58903 60.7389 4.58903 47.4986C4.58624 34.1076 21.7813 25.2821 47.5 25.2821C73.368 25.2821 90.411 34.1076 90.411 47.4986C90.411 60.7389 73.368 69.7165 47.5 69.7165ZM47.5 27.412C23.3041 27.412 7.17388 35.4782 7.17388 47.4986C7.17388 59.519 23.3041 67.5866 47.5 67.5866C71.696 67.5866 87.8219 59.5218 87.8219 47.4986C87.8219 35.4754 71.6918 27.412 47.5 27.412ZM47.5 67.1302C23.6097 67.1302 7.63307 59.2175 7.63307 47.4986C7.63307 35.7797 23.6069 27.8699 47.5 27.8699C71.3931 27.8699 87.3655 35.7825 87.3655 47.4986C87.3655 59.2147 71.3875 67.1302 47.5 67.1302Z" fill="white"></path>
</svg>